<?xml version="1.0" encoding="UTF-8" standalone="no"?>
<svg
   version="1.1"
   width="1560"
   height="403"
   id="svg16"
   sodipodi:docname="DID-ObjectID_darkmode.svg"
   inkscape:version="1.4.2 (ebf0e94, 2025-05-08)"
   xmlns:inkscape="http://www.inkscape.org/namespaces/inkscape"
   xmlns:sodipodi="http://sodipodi.sourceforge.net/DTD/sodipodi-0.dtd"
   xmlns="http://www.w3.org/2000/svg"
   xmlns:svg="http://www.w3.org/2000/svg">
  <defs
     id="defs16" />
  <sodipodi:namedview
     id="namedview16"
     pagecolor="#ffffff"
     bordercolor="#000000"
     borderopacity="0.25"
     inkscape:showpageshadow="false"
     inkscape:pageopacity="0.0"
     inkscape:pagecheckerboard="false"
     inkscape:deskcolor="#d1d1d1"
     inkscape:zoom="0.91307856"
     inkscape:cx="1080.9585"
     inkscape:cy="382.77101"
     inkscape:window-width="2560"
     inkscape:window-height="1369"
     inkscape:window-x="2552"
     inkscape:window-y="-8"
     inkscape:window-maximized="1"
     inkscape:current-layer="svg16"
     showborder="false"
     borderlayer="false" />
  <path
     d="m 170.1159,4.732202 c 9.24,0 18.48,0 28,0 0,104.939998 0,209.879998 0,317.999998 -9.24,0 -18.48,0 -28,0 0,-104.94 0,-209.88 0,-317.999998 z"
     fill="#000000"
     id="path1"
     style="fill:#ffffff" />
  <path
     d="m 233.1159,4.732202 c 99.34581,0 99.34581,0 116.8125,16.3125 10.9515,11.737495 15.51525,27.31692 15.45492,43.058502 0.005,0.887469 0.009,1.774939 0.0137,2.689302 0.0126,2.944308 0.011,5.88843 0.009,8.832762 0.006,2.123273 0.0128,4.246544 0.0204,6.369812 0.0176,5.748244 0.0223,11.496429 0.0236,17.244697 0.001,3.597963 0.006,7.195903 0.011,10.793863 0.0185,12.57124 0.0267,25.14244 0.0251,37.7137 -0.001,11.68677 0.0199,23.37335 0.0515,35.06007 0.0262,10.05897 0.0369,20.11789 0.0356,30.1769 -5e-4,5.99645 0.005,11.99274 0.0264,17.98916 0.0195,5.64558 0.0194,11.29084 0.005,16.93643 -0.002,2.06059 0.003,4.1212 0.0147,6.18176 0.1051,19.03357 -1.89444,37.0875 -15.44905,51.72648 -30.95357,28.83507 -79.1103,16.91406 -117.05469,16.91406 0,-104.94 0,-209.88 0,-317.999998 z m 29,26 c 0,88.109998 0,176.219998 0,266.999998 27.45843,3.00719 27.45843,3.00719 60.48047,-6.42968 0.75217,-0.77731 0.75217,-0.77731 1.51953,-1.57032 1.14321,-0.89918 2.28914,-1.7949 3.4375,-2.6875 3.65775,-3.11413 6.27388,-6.63179 7.5625,-11.3125 -0.33985,-2.18665 -0.33985,-2.18665 -1,-4 0.66,-0.33 1.32,-0.66 2,-1 1.03834,-5.11325 1.14239,-10.18326 1.12698,-15.38072 0.002,-0.81704 0.003,-1.63409 0.005,-2.4759 0.004,-2.72351 8.3e-4,-5.44696 -0.002,-8.17047 10e-4,-1.95848 0.003,-3.91695 0.005,-5.87542 0.005,-5.30987 0.003,-10.61973 -3.8e-4,-15.92961 -0.003,-5.56162 -1.8e-4,-11.12324 0.001,-16.68486 0.002,-9.34029 -5.8e-4,-18.68057 -0.005,-28.02086 -0.005,-10.79099 -0.004,-21.58197 0.002,-32.37297 0.005,-9.27153 0.005,-18.54305 0.003,-27.81458 -0.002,-5.53451 -0.002,-11.06902 0.002,-16.60354 0.003,-5.204663 8.8e-4,-10.409308 -0.005,-15.613972 -10e-4,-1.907525 -9.5e-4,-3.815053 0.001,-5.722578 0.003,-2.608965 -7.1e-4,-5.217853 -0.006,-7.826813 0.002,-0.750112 0.004,-1.500224 0.007,-2.273067 -0.0226,-6.146486 -0.40297,-12.300556 -2.13374,-18.234638 -0.66,0 -1.32,0 -2,0 -0.0619,-0.886875 -0.12375,-1.77375 -0.1875,-2.6875 -1.01783,-4.149627 -2.64476,-5.504726 -5.8125,-8.3125 -0.76313,-0.845625 -1.52625,-1.69125 -2.3125,-2.5625 -16.37871,-14.855109 -44.04118,-7.903658 -62.6875,-7.4375 z"
     fill="#000000"
     id="path2"
     style="fill:#ffffff" />
  <path
     d="m 1360.1159,4.732202 c 9.57,0 19.14,0 29,0 0,104.939998 0,209.879998 0,317.999998 -9.57,0 -19.14,0 -29,0 0,-104.94 0,-209.88 0,-317.999998 z"
     fill="#000000"
     id="path3"
     style="fill:#ffffff" />
  <path
     d="m 136.1159,5.732202 c 0,104.939998 0,209.879998 0,317.999998 -98.424965,0 -98.424965,0 -114.820319,-15.79296 -1.078945,-1.09248 -1.078945,-1.09248 -2.179687,-2.20704 -0.574922,-0.553 -1.149844,-1.10601 -1.742188,-1.67578 -9.1142868,-9.51569 -12.5758872,-22.93389 -12.5185084,-35.74737 -0.00383,-0.91717 -0.00765,-1.83434 -0.011593,-2.7793 -0.010274,-3.0566 -0.00635,-6.11301 -0.00237,-9.16962 -0.00435,-2.19843 -0.00953,-4.39686 -0.015488,-6.59529 -0.013376,-5.9609 -0.01397,-11.92174 -0.011437,-17.88265 0.00107,-4.98236 -0.00382,-9.96471 -0.00861,-14.94706 -0.011724,-12.43116 -0.010873,-24.86228 -0.00444,-37.29344 0.00517,-10.77435 -0.00608,-21.54862 -0.025098,-32.32295 -0.019415,-11.08348 -0.027337,-22.16692 -0.023877,-33.25042 0.00181,-6.2143 -7.926e-4,-12.42851 -0.014715,-18.642797 -0.01261,-5.847412 -0.010604,-11.694643 0.00241,-17.542051 0.00236,-2.139669 -3.431e-4,-4.27935 -0.00862,-6.419003 C 4.66164,52.038923 6.7812342,36.685741 20.705738,22.017358 50.587574,-6.3146909 100.90731,5.732202 136.1159,5.732202 Z m -93.000006,36 c -8.927558,8.927557 -9.513343,18.737034 -9.553223,30.69162 0.0062,1.965913 0.01279,3.931825 0.01978,5.897735 -0.0071,2.090359 -0.01581,4.180712 -0.02611,6.271057 -0.02244,5.657142 -0.01957,11.314004 -0.01068,16.971176 0.0051,4.73146 -0.0022,9.46286 -0.0095,14.19431 -0.01698,11.16671 -0.01345,22.33328 0.0033,33.49998 0.01692,11.5006 0.0011,23.00081 -0.03122,34.50136 -0.02674,9.89248 -0.03396,19.78484 -0.02549,29.67735 0.0049,5.90021 0.0028,11.8002 -0.01779,17.70038 -0.01842,5.55045 -0.01232,11.10035 0.0122,16.65077 0.005,2.03001 0.0016,4.06006 -0.01115,6.09004 -0.0772,13.38802 0.556613,24.20732 9.649861,34.85422 2.00539,1.7242 2.00539,1.7242 4.1875,3.125 0.694804,0.47696 1.389609,0.95391 2.105469,1.44532 18.293389,9.66144 35.717845,4.42968 57.707029,4.42968 0,-87.78 0,-175.56 0,-265.999998 -34.723301,-3.12274 -34.723301,-3.12274 -63.999998,10 z"
     fill="#000000"
     id="path4"
     style="fill:#ffffff" />
  <path
     d="m 714.1159,5.732202 c 9.24,0 18.48,0 28,0 0,41.25 0,82.5 0,124.999998 12.21,-1.65 24.42,-3.3 37,-5 7.52317,-0.75231 14.67109,-1.21234 22.1875,-1.25 1.04092,-0.0206 2.08183,-0.0412 3.1543,-0.0625 7.47279,-0.0379 12.01678,1.078 18.4082,5 6.59886,6.78217 5.68531,15.97249 5.65405,24.79981 0.006,1.45953 0.0127,2.91905 0.0208,4.37857 0.0179,3.94655 0.0168,7.89288 0.0111,11.83946 -0.003,3.30477 0.003,6.6095 0.009,9.91427 0.014,7.80392 0.0125,15.60773 0.001,23.41164 -0.0115,8.02529 0.003,16.05024 0.0294,24.07548 0.0222,6.91157 0.0288,13.82303 0.0229,20.73463 -0.003,4.11842 -10e-4,8.23663 0.0163,12.35502 0.0156,3.87766 0.0114,7.75482 -0.007,11.63246 -0.004,1.41402 -6.6e-4,2.82807 0.01,4.24205 0.0869,12.62527 -1.911,23.34824 -10.5172,32.92911 -0.52465,0.61618 -1.0493,1.23235 -1.58984,1.86719 -7.25511,7.95501 -14.93053,10.03689 -25.41016,12.13281 -25.41,0 -50.82,0 -77,0 0,-104.94 0,-209.88 0,-317.999998 z m 28,145.999998 c 0,48.51 0,97.02 0,147 26.04214,1.48971 26.04214,1.48971 51,-3 4.06764,-4.06764 6.71924,-7.91062 7.24609,-13.70796 -0.002,-0.98356 -0.004,-1.96711 -0.006,-2.98047 0.003,-1.13437 0.005,-2.26874 0.008,-3.43748 -0.007,-1.23502 -0.0144,-2.47005 -0.0218,-3.74249 2.9e-4,-1.30771 5.8e-4,-2.61542 8.8e-4,-3.96276 5.8e-4,-3.57815 -0.0112,-7.15618 -0.0251,-10.7343 -0.0125,-3.74227 -0.0137,-7.48454 -0.016,-11.22682 -0.006,-7.08305 -0.0226,-14.16605 -0.0427,-21.24908 -0.0224,-8.06525 -0.0334,-16.1305 -0.0434,-24.19577 -0.0209,-16.58766 -0.0561,-33.17526 -0.10065,-49.76287 -4.04165,-0.0306 -8.08327,-0.0473 -12.125,-0.0625 -1.0841,-0.008 -2.1682,-0.0168 -3.28516,-0.0254 -14.22568,-0.0393 -28.33976,0.61289 -42.58984,1.08789 z"
     fill="#000000"
     id="path5"
     style="fill:#ffffff" />
  <path
     d="m 1539.2409,21.357202 c 10.8851,11.363101 15.0255,25.079664 15.0221,40.423568 0,0.901092 0.01,1.802184 0.011,2.730581 0.011,3.014297 0.015,6.028559 0.019,9.042872 0.01,2.163713 0.013,4.327424 0.02,6.491135 0.021,7.102638 0.031,14.205276 0.041,21.307942 0,2.4495 0.01,4.899 0.012,7.3485 0.019,11.5122 0.033,23.02439 0.042,34.53661 0.01,13.26601 0.036,26.53186 0.077,39.79781 0.03,10.26779 0.045,20.53553 0.048,30.80336 0,6.1256 0.011,12.25102 0.036,18.37657 0.023,5.76945 0.027,11.5386 0.017,17.30808 -5e-4,2.10778 0.01,4.21557 0.02,6.3233 0.1254,20.31048 -2.6273,36.19267 -17.0059,51.56046 -29.2888,27.40065 -82.387,14.72543 -114.4844,14.32421 0,-104.28 0,-208.56 0,-315.999998 97.9166,-1.255341 97.9166,-1.255341 116.125,15.625 z m -87.125,9.375 c -0.33,88.109998 -0.66,176.219998 -1,266.999998 24.6586,1.10195 24.6586,1.10195 49,-1 0,-0.66 0,-1.32 0,-2 1.2065,-0.0619 1.2065,-0.0619 2.4375,-0.125 7.7624,-1.90656 14.1891,-7.27641 18.5625,-13.875 5.3748,-9.87627 4.5655,-20.64722 4.5176,-31.53515 0.01,-2.07242 0.013,-4.14484 0.021,-6.21726 0.018,-5.60331 0.011,-11.20632 0,-16.80964 -0.01,-5.87784 -7e-4,-11.75566 0.01,-17.6335 0.01,-9.86878 0,-19.73744 -0.021,-29.6062 -0.022,-11.3921 -0.015,-22.78391 0.01,-34.176 0.018,-9.79991 0.021,-19.59973 0.01,-29.39966 -0.01,-5.84479 -0.01,-11.68945 0.01,-17.534243 0.012,-5.496228 0,-10.992091 -0.02,-16.488282 -0.01,-2.011079 0,-4.02219 0,-6.033257 0.053,-13.315084 -0.044,-24.77825 -9.8158,-34.922275 -17.4332,-16.718431 -40.4155,-10.241949 -63.7148,-9.644531 z"
     fill="#000000"
     id="path6"
     style="fill:#ffffff" />
  <path
     d="m 680.1159,6.7322024 c 0,104.6099976 0,209.2199976 0,316.9999976 -99.04941,0 -99.04941,0 -116.67578,-16.51953 -9.76881,-10.42553 -14.47442,-23.35169 -14.47139,-37.44711 -0.004,-0.91642 -0.007,-1.83284 -0.0111,-2.77704 -0.011,-3.07812 -0.0149,-6.15621 -0.0187,-9.23434 -0.006,-2.20445 -0.0129,-4.4089 -0.0199,-6.61334 -0.021,-7.24819 -0.0314,-14.49637 -0.0414,-21.74457 -0.004,-2.49719 -0.008,-4.99438 -0.0123,-7.49157 -0.0169,-10.39195 -0.0315,-20.78391 -0.0388,-31.17587 -0.002,-2.69565 -0.004,-5.39131 -0.006,-8.08696 -4.8e-4,-0.66994 -9.6e-4,-1.33989 -10e-4,-2.03013 -0.008,-10.83471 -0.0336,-21.6693 -0.0661,-32.50396 -0.0331,-11.13986 -0.0508,-22.27966 -0.0543,-33.41957 -0.002,-6.248 -0.0112,-12.49582 -0.0365,-18.74377 -0.0234,-5.885144 -0.0275,-11.769999 -0.0172,-17.655178 5e-4,-2.151734 -0.006,-4.303483 -0.0195,-6.455174 -0.10113,-16.731351 1.17278,-30.201603 11.49028,-44.101886 0.47308,-0.656133 0.94617,-1.312266 1.43359,-1.988282 C 587.41283,-7.2992046 652.3621,6.7322024 680.11621,6.7322024 Z M 587.01434,41.517358 c -10.29653,10.668956 -9.48109,24.102071 -9.43189,37.917724 -0.007,2.090507 -0.0158,4.181007 -0.0261,6.2715 -0.0224,5.652951 -0.0196,11.305625 -0.0107,16.958598 0.005,4.72902 -0.002,9.45799 -0.009,14.18701 -0.017,11.16049 -0.0135,22.32084 0.003,33.48133 0.0169,11.49323 10e-4,22.98608 -0.0312,34.47927 -0.0267,9.88825 -0.034,19.77639 -0.0255,29.66467 0.005,5.89685 0.003,11.79346 -0.0178,17.69027 -0.0184,5.54636 -0.0123,11.09217 0.0122,16.6385 0.005,2.0284 0.002,4.05684 -0.0111,6.08521 -0.0723,12.53328 0.0747,23.89423 8.89986,33.77826 17.91284,15.89668 41.78417,10.0625 64.75,10.0625 0,-88.11 0,-176.22 0,-266.999998 -33.90804,-2.586666 -33.90804,-2.586666 -64.10156,9.785156 z"
     fill="#000000"
     id="path7"
     style="fill:#ffffff" />
  <path
     d="m 872.1159,48.732202 c 9.57,0 19.14,0 29,0 0,11.22 0,22.44 0,34 -9.57,0 -19.14,0 -29,0 0,-11.22 0,-22.44 0,-34 z"
     fill="#000000"
     id="path8"
     style="fill:#ffffff" />
  <path
     d="m 1263.1159,63.732202 c 8.91,0 17.82,0 27,0 0,20.46 0,40.919998 0,61.999998 11.55,0 23.1,0 35,0 0,7.92 0,15.84 0,24 -11.55,0 -23.1,0 -35,0 0,49.17 0,98.34 0,149 11.55,0 23.1,0 35,0 0,8.25 0,16.5 0,25 -5.9412,0.0692 -11.881,0.12884 -17.8223,0.1648 -2.0173,0.015 -4.0346,0.0354 -6.0517,0.0615 -2.9145,0.0368 -5.8285,0.0535 -8.7432,0.0666 -1.3334,0.0232 -1.3334,0.0232 -2.6938,0.0469 -7.4462,0.002 -14.7072,-0.92903 -20.6265,-5.71489 -4.8123,-6.12466 -6.189,-10.33328 -6.1828,-18.06634 -8e-4,-0.64454 0,-1.28907 0,-1.95314 0,-2.15727 0,-4.31446 0.01,-6.47173 2e-4,-1.54736 10e-5,-3.09473 -5e-4,-4.6421 -3e-4,-4.20006 0.01,-8.40008 0.013,-12.60013 0.01,-4.38957 0.01,-8.77914 0.01,-13.16872 0,-8.312 0.011,-16.62398 0.021,-24.93598 0.011,-9.46303 0.017,-18.92606 0.022,-28.3891 0.01,-19.46592 0.028,-38.93184 0.05,-58.39776 -7.92,0 -15.84,0 -24,0 0,-7.92 0,-15.84 0,-24 7.92,0 15.84,0 24,0 0,-20.46 0,-40.919998 0,-61.999998 z"
     fill="#000000"
     id="path9"
     style="fill:#ffffff" />
  <path
     d="m 873.1159,125.7322 c 8.91,0 17.82,0 27,0 0.0905,32.44266 0.16207,64.88526 0.20426,97.32801 0.005,3.83256 0.0102,7.66512 0.0155,11.49768 0.001,0.76297 0.002,1.52595 0.003,2.31204 0.0174,12.34435 0.0489,24.68863 0.0857,37.03293 0.0374,12.672 0.0596,25.34397 0.0677,38.01602 0.005,7.81563 0.0228,15.63104 0.0553,23.44659 0.0237,5.99901 0.0262,11.99783 0.0208,17.99689 10e-4,2.45657 0.009,4.91316 0.0244,7.36968 0.02,3.35992 0.0151,6.71893 0.004,10.07887 0.0117,0.96695 0.0233,1.93391 0.0353,2.93016 -0.0611,6.99446 -1.20254,14.33006 -6.06565,19.70284 -8.87608,7.557 -23.75668,5.53043 -34.63817,5.41329 -1.63606,-0.0101 -3.27213,-0.0192 -4.9082,-0.0273 -3.96838,-0.0201 -7.9359,-0.0593 -11.9043,-0.0977 0,-8.25 0,-16.5 0,-25 9.9,0 19.8,0 30,0 0,-81.84 0,-163.68 0,-248 z"
     fill="#000000"
     id="path10"
     style="fill:#ffffff" />
  <path
     d="m 968.92205,125.45755 c 0.75856,-0.005 1.51712,-0.0102 2.29866,-0.0155 2.49379,-0.0138 4.9873,-0.0129 7.48113,-0.0106 1.74346,-0.004 3.48692,-0.008 5.23037,-0.013 3.6498,-0.007 7.29951,-0.007 10.94931,-0.002 4.6626,0.006 9.32468,-0.0111 13.98718,-0.0343 3.5999,-0.0148 7.1996,-0.0156 10.7994,-0.0125 1.7183,-5.2e-4 3.4366,-0.006 5.1549,-0.0158 2.4095,-0.0124 4.8184,-0.006 7.2279,0.006 1.0508,-0.0115 1.0508,-0.0115 2.1228,-0.0232 5.8255,0.0613 11.3321,1.31447 15.9656,5.00876 0.446,0.56074 0.892,1.12148 1.3516,1.69921 0.6922,0.82952 0.6922,0.82952 1.3984,1.67579 3.0511,5.00414 3.5367,10.06548 3.5806,15.802 0.02,1.13543 0.02,1.13543 0.04,2.29379 0.039,2.48891 0.063,4.97757 0.083,7.46671 0.01,0.85483 0.016,1.70967 0.025,2.59041 0.042,4.52316 0.07,9.04619 0.089,13.5695 0.022,4.65421 0.091,9.3065 0.1704,13.96003 0.052,3.59558 0.069,7.19071 0.076,10.78663 0.01,1.7148 0.033,3.42957 0.07,5.14399 0.3055,14.98971 0.3055,14.98971 -3.8723,20.96555 -6.2181,5.62937 -14.5988,4.54127 -22.4409,4.31201 -1.6924,-0.0168 -3.385,-0.0296 -5.0775,-0.0386 -4.4333,-0.0342 -8.864,-0.12246 -13.2963,-0.22233 -5.3293,-0.10871 -10.6595,-0.14966 -15.98958,-0.20208 -8.07863,-0.087 -16.15137,-0.2595 -24.23032,-0.41591 0,23.1 0,46.2 0,70 18.81,0 37.62,0 57,0 0,-11.88 0,-23.76 0,-36 8.91,0 17.82,0 27,0 0.069,6.12023 0.1287,12.23908 0.1648,18.35938 0.015,2.07947 0.035,4.15892 0.061,6.23828 0.037,2.99878 0.054,5.99713 0.067,8.99609 0.023,1.38174 0.023,1.38174 0.047,2.79139 0,6.11378 -0.399,12.36773 -4.7213,17.14013 -6.7644,5.86733 -13.0834,6.58815 -21.8423,6.63587 -0.6968,0.005 -1.3936,0.01 -2.1115,0.015 -2.2894,0.0145 -4.5786,0.0214 -6.8679,0.0269 -1.1811,0.004 -1.1811,0.004 -2.3861,0.009 -4.1677,0.0149 -8.3354,0.0242 -12.5031,0.0285 -4.2812,0.005 -8.56208,0.0295 -12.84321,0.058 -3.31336,0.0187 -6.62665,0.0238 -9.94006,0.0254 -1.57709,0.003 -3.15418,0.011 -4.73122,0.0242 -20.0594,0.15618 -20.0594,0.15618 -27.33071,-5.72276 -5.06214,-6.44272 -6.18031,-11.21032 -6.20967,-19.34709 -0.004,-0.66283 -0.007,-1.32567 -0.0111,-2.00859 -0.011,-2.21372 -0.0149,-4.4274 -0.0187,-6.64114 -0.006,-1.59041 -0.0129,-3.18081 -0.0199,-4.77121 -0.021,-5.21664 -0.0314,-10.43327 -0.0414,-15.64993 -0.004,-1.79924 -0.008,-3.59847 -0.0123,-5.3977 -0.019,-8.45435 -0.0333,-16.90868 -0.0416,-25.36304 -0.01,-9.74397 -0.0361,-19.48771 -0.0765,-29.2316 -0.0302,-7.5416 -0.045,-15.08313 -0.0483,-22.62479 -0.002,-4.4996 -0.0112,-8.99896 -0.0365,-13.4985 -0.0234,-4.23624 -0.0275,-8.47207 -0.0172,-12.70836 5e-4,-1.54871 -0.006,-3.09744 -0.0195,-4.64609 -0.15297,-18.2165 -0.15297,-18.2165 5.86686,-25.3736 5.39583,-4.90947 11.4197,-5.66266 18.42957,-5.63801 z m 3.19385,23.27465 c 0,19.47 0,38.94 0,59 18.81,0 37.62,0 57,0 0,-19.47 0,-38.94 0,-59 -18.81,0 -37.62,0 -57,0 z"
     fill="#000000"
     id="path11"
     style="fill:#ffffff" />
  <path
     d="m 1123.8302,125.45755 c 0.7488,-0.005 1.4976,-0.0102 2.2691,-0.0155 2.4614,-0.0138 4.9224,-0.0129 7.3838,-0.0106 1.721,-0.004 3.442,-0.008 5.1631,-0.013 3.6027,-0.007 7.2053,-0.007 10.8081,-0.002 4.602,0.006 9.2036,-0.0111 13.8056,-0.0343 3.5535,-0.0148 7.1069,-0.0156 10.6604,-0.0125 1.696,-5.2e-4 3.3919,-0.006 5.0878,-0.0158 2.3785,-0.0124 4.7562,-0.006 7.1346,0.006 1.0368,-0.0115 1.0368,-0.0115 2.0945,-0.0232 6.4102,0.0683 11.7014,1.65366 16.6912,5.64547 5.3562,6.73349 5.6076,12.60752 5.4804,20.9336 0,1.0555 -0.01,2.11101 -0.013,3.1985 -0.017,3.35207 -0.054,6.70352 -0.093,10.0554 -0.015,2.28059 -0.029,4.56119 -0.041,6.8418 -0.03,5.57399 -0.089,11.14667 -0.1465,16.7207 -8.91,0 -17.82,0 -27,0 0,-12.87 0,-25.74 0,-39 -18.15,0 -36.3,0 -55,0 0,49.17 0,98.34 0,149 18.15,0 36.3,0 55,0 0,-14.52 0,-29.04 0,-44 8.91,0 17.82,0 27,0 0.092,7.54456 0.1716,15.08717 0.2197,22.63184 0.02,2.56452 0.047,5.129 0.082,7.69336 0.049,3.6938 0.071,7.38699 0.089,11.08105 0.021,1.1399 0.041,2.27979 0.063,3.45423 0,8.01645 -1.2217,13.17828 -6.3907,19.51452 -5.8602,4.61711 -13.0017,4.74639 -20.1944,4.78614 -0.687,0.005 -1.3741,0.01 -2.082,0.015 -2.2568,0.0145 -4.5136,0.0214 -6.7705,0.0269 -1.1645,0.004 -1.1645,0.004 -2.3526,0.009 -4.1094,0.0149 -8.2187,0.0242 -12.3281,0.0285 -4.2206,0.005 -8.441,0.0295 -12.6616,0.058 -3.267,0.0187 -6.534,0.0238 -9.8011,0.0254 -1.5547,0.003 -3.1095,0.011 -4.6642,0.0242 -19.8732,0.15698 -19.8732,0.15698 -27.1455,-5.72276 -5.0622,-6.44272 -6.1803,-11.21032 -6.2097,-19.34709 0,-0.66283 -0.01,-1.32567 -0.011,-2.00859 -0.011,-2.21372 -0.015,-4.4274 -0.019,-6.64114 -0.01,-1.59041 -0.013,-3.18081 -0.02,-4.77121 -0.021,-5.21664 -0.031,-10.43327 -0.041,-15.64993 0,-1.79924 -0.01,-3.59847 -0.012,-5.3977 -0.019,-8.45435 -0.033,-16.90868 -0.042,-25.36304 -0.01,-9.74397 -0.036,-19.48771 -0.077,-29.2316 -0.03,-7.5416 -0.045,-15.08313 -0.048,-22.62479 0,-4.4996 -0.011,-8.99896 -0.036,-13.4985 -0.023,-4.23624 -0.027,-8.47207 -0.017,-12.70836 4e-4,-1.54871 -0.01,-3.09744 -0.02,-4.64609 -0.153,-18.2165 -0.153,-18.2165 5.8669,-25.3736 5.3668,-4.88312 11.3619,-5.66287 18.3377,-5.63801 z"
     fill="#000000"
     id="path12"
     style="fill:#ffffff" />
  <path
     d="m 406.1159,150.7322 c 10.56,0 21.12,0 32,0 0,12.21 0,24.42 0,37 -10.56,0 -21.12,0 -32,0 0,-12.21 0,-24.42 0,-37 z"
     fill="#000000"
     id="path13"
     style="fill:#ffffff" />
  <path
     d="m 475.1159,150.7322 c 10.56,0 21.12,0 32,0 0,12.21 0,24.42 0,37 -10.56,0 -21.12,0 -32,0 0,-12.21 0,-24.42 0,-37 z"
     fill="#000000"
     id="path14"
     style="fill:#ffffff" />
  <path
     d="m 406.1159,287.7322 c 10.56,0 21.12,0 32,0 0,11.88 0,23.76 0,36 -10.56,0 -21.12,0 -32,0 0,-11.88 0,-23.76 0,-36 z"
     fill="#000000"
     id="path15"
     style="fill:#ffffff" />
  <path
     d="m 475.1159,287.7322 c 10.56,0 21.12,0 32,0 0,11.88 0,23.76 0,36 -10.56,0 -21.12,0 -32,0 0,-11.88 0,-23.76 0,-36 z"
     fill="#000000"
     id="path16"
     style="fill:#ffffff" />
</svg>
